<?xml version="1.0" encoding="UTF-8" standalone="no"?>
<!-- Uploaded to: SVG Repo, www.svgrepo.com, Transformed by: SVG Repo Mixer Tools -->

<svg
   width="800px"
   height="800px"
   viewBox="0 0 400 400"
   fill="none"
   stroke="#ffffff"
   version="1.1"
   id="svg15"
   sodipodi:docname="ai-white.svg"
   inkscape:version="1.4.2 (ebf0e940d0, 2025-05-08)"
   xmlns:inkscape="http://www.inkscape.org/namespaces/inkscape"
   xmlns:sodipodi="http://sodipodi.sourceforge.net/DTD/sodipodi-0.dtd"
   xmlns="http://www.w3.org/2000/svg"
   xmlns:svg="http://www.w3.org/2000/svg">
  <defs
     id="defs15" />
  <sodipodi:namedview
     id="namedview15"
     pagecolor="#262626"
     bordercolor="#000000"
     borderopacity="0.25"
     inkscape:showpageshadow="2"
     inkscape:pageopacity="0.0"
     inkscape:pagecheckerboard="0"
     inkscape:deskcolor="#d1d1d1"
     inkscape:zoom="1.4275"
     inkscape:cx="400"
     inkscape:cy="400"
     inkscape:window-width="3440"
     inkscape:window-height="1363"
     inkscape:window-x="0"
     inkscape:window-y="40"
     inkscape:window-maximized="1"
     inkscape:current-layer="svg15" />
  <g
     id="SVGRepo_bgCarrier"
     stroke-width="0" />
  <g
     id="SVGRepo_tracerCarrier"
     stroke-linecap="round"
     stroke-linejoin="round" />
  <g
     id="SVGRepo_iconCarrier">
    <path
       d="M97.8357 54.6682C177.199 59.5311 213.038 52.9891 238.043 52.9891C261.298 52.9891 272.24 129.465 262.683 152.048C253.672 173.341 100.331 174.196 93.1919 165.763C84.9363 156.008 89.7095 115.275 89.7095 101.301"
       stroke="#ffffff"
       stroke-opacity="0.9"
       stroke-width="16"
       stroke-linecap="round"
       stroke-linejoin="round"
       id="path1" />
    <path
       d="M98.3318 190.694C-10.6597 291.485 121.25 273.498 148.233 295.083"
       stroke="#ffffff"
       stroke-opacity="0.9"
       stroke-width="16"
       stroke-linecap="round"
       stroke-linejoin="round"
       id="path2" />
    <path
       d="M98.3301 190.694C99.7917 213.702 101.164 265.697 100.263 272.898"
       stroke="#ffffff"
       stroke-opacity="0.9"
       stroke-width="16"
       stroke-linecap="round"
       stroke-linejoin="round"
       id="path3" />
    <path
       d="M208.308 136.239C208.308 131.959 208.308 127.678 208.308 123.396"
       stroke="#ffffff"
       stroke-opacity="0.9"
       stroke-width="16"
       stroke-linecap="round"
       stroke-linejoin="round"
       id="path4" />
    <path
       d="M177.299 137.271C177.035 133.883 177.3 126.121 177.3 123.396"
       stroke="#ffffff"
       stroke-opacity="0.9"
       stroke-width="16"
       stroke-linecap="round"
       stroke-linejoin="round"
       id="path5" />
    <path
       d="M203.398 241.72C352.097 239.921 374.881 226.73 312.524 341.851"
       stroke="#ffffff"
       stroke-opacity="0.9"
       stroke-width="16"
       stroke-linecap="round"
       stroke-linejoin="round"
       id="path6" />
    <path
       d="M285.55 345.448C196.81 341.85 136.851 374.229 178.223 264.504"
       stroke="#ffffff"
       stroke-opacity="0.9"
       stroke-width="16"
       stroke-linecap="round"
       stroke-linejoin="round"
       id="path7" />
    <path
       d="M180.018 345.448C160.77 331.385 139.302 320.213 120.658 304.675"
       stroke="#ffffff"
       stroke-opacity="0.9"
       stroke-width="16"
       stroke-linecap="round"
       stroke-linejoin="round"
       id="path8" />
    <path
       d="M218.395 190.156C219.024 205.562 219.594 220.898 219.594 236.324"
       stroke="#ffffff"
       stroke-opacity="0.9"
       stroke-width="16"
       stroke-linecap="round"
       stroke-linejoin="round"
       id="path9" />
    <path
       d="M218.395 190.156C225.896 202.037 232.97 209.77 241.777 230.327"
       stroke="#ffffff"
       stroke-opacity="0.9"
       stroke-width="16"
       stroke-linecap="round"
       stroke-linejoin="round"
       id="path10" />
    <path
       d="M80.1174 119.041C75.5996 120.222 71.0489 119.99 66.4414 120.41"
       stroke="#ffffff"
       stroke-opacity="0.9"
       stroke-width="16"
       stroke-linecap="round"
       stroke-linejoin="round"
       id="path11" />
    <path
       d="M59.5935 109.469C59.6539 117.756 59.5918 125.915 58.9102 134.086"
       stroke="#ffffff"
       stroke-opacity="0.9"
       stroke-width="16"
       stroke-linecap="round"
       stroke-linejoin="round"
       id="path12" />
    <path
       d="M277.741 115.622C281.155 115.268 284.589 114.823 287.997 114.255"
       stroke="#ffffff"
       stroke-opacity="0.9"
       stroke-width="16"
       stroke-linecap="round"
       stroke-linejoin="round"
       id="path13" />
    <path
       d="M291.412 104.682C292.382 110.109 292.095 115.612 292.095 121.093"
       stroke="#ffffff"
       stroke-opacity="0.9"
       stroke-width="16"
       stroke-linecap="round"
       stroke-linejoin="round"
       id="path14" />
    <path
       d="M225.768 116.466C203.362 113.993 181.657 115.175 160.124 118.568"
       stroke="#ffffff"
       stroke-opacity="0.9"
       stroke-width="16"
       stroke-linecap="round"
       stroke-linejoin="round"
       id="path15" />
  </g>
  <path
     style="fill:#ffffff;stroke-width:0.5"
     id="path16"
     d="m 199.57051,320.34422 c 0.29081,-2.61847 0.96763,-5.16886 1.5296,-7.73623 0.31951,-1.45969 0.62161,-2.92315 0.9407,-4.38293 0.87255,-4.13248 2.03107,-8.19122 3.23878,-12.23523 0.98552,-3.41034 2.21381,-6.74499 3.39915,-10.08976 0.81922,-2.47218 1.8554,-4.85478 2.96804,-7.20526 0.60896,-1.66854 1.58923,-3.11346 2.71768,-4.46616 0.65741,-0.80563 1.21488,-1.69952 1.91572,-2.4703 0.26693,-0.29357 0.76439,-0.72544 1.05579,-0.98665 1.04899,-0.89299 2.22751,-1.64912 3.43606,-2.30931 0.18902,-0.0863 0.38065,-0.16699 0.56704,-0.25879 0.53923,-0.26558 0.61487,-0.35954 1.17522,-0.57048 0.69963,-0.26336 1.4321,-0.35595 2.16669,-0.46429 1.81447,-0.18996 3.64179,-0.18481 5.46398,-0.19495 0.89031,0.0195 1.78042,-0.0682 2.66,0.11906 2.14604,0.457 7.73935,4.02196 -3.9521,-2.50417 1.83728,1.19613 3.20645,2.89536 4.49732,4.63502 1.2089,1.74244 2.24074,3.61832 3.10285,5.55546 0.66339,1.66615 1.17717,3.37872 1.69279,5.09312 0.46897,1.42587 0.92021,2.85413 1.2341,4.32288 0.34989,2.0296 0.36234,4.09799 0.38517,6.15174 0.0287,2.28129 0.0223,4.56285 0.0143,6.84425 0.019,2.49491 0.0502,4.98162 -0.18299,7.46736 -0.14591,2.00262 -0.42325,3.97988 -0.7785,5.95406 -0.26509,1.52922 -0.3861,3.07624 -0.44433,4.62541 0.0712,1.23727 -0.2127,2.42917 -0.42589,3.63632 -0.12026,0.91224 -0.0672,0.45059 -0.15838,1.38504 0,0 6.63028,3.45627 6.63028,3.45627 v 0 c 0.0797,-0.8993 0.0324,-0.45644 0.14037,-1.32871 0.20861,-1.2408 0.55725,-2.46119 0.46548,-3.7323 0.0417,-1.51944 0.1262,-3.03992 0.37641,-4.54155 0.15783,-0.91728 0.36181,-1.83751 0.47345,-2.76169 0.13093,-1.08384 0.14206,-2.1833 0.29482,-3.26545 0.0664,-0.70609 0.18614,-1.87843 0.21212,-2.57769 0.0612,-1.64609 -0.0332,-3.29789 0.0138,-4.9445 -0.001,-2.28259 0.008,-4.56519 0.004,-6.84776 -0.0333,-2.08981 -0.0439,-4.18798 -0.30164,-6.26487 -0.28571,-1.49781 -0.70101,-2.95613 -1.18864,-4.39961 -0.27177,-0.75508 -0.43613,-1.52811 -0.69135,-2.28897 -0.26591,-0.79272 -0.39514,-1.0456 -0.67613,-1.85083 -0.11843,-0.33935 -0.22471,-0.68282 -0.33707,-1.02423 -0.79561,-2.00601 -1.87964,-3.90135 -3.04159,-5.71489 -1.26852,-1.78941 -2.59434,-3.56369 -4.37837,-4.8764 -2.16596,-1.25899 -5.70801,-4.24486 -8.96866,-4.64449 -0.89555,-0.10976 -1.79856,-0.033 -2.6969,-0.0505 -1.85195,0.0114 -3.71225,0.0252 -5.54985,0.28087 -1.53529,0.28888 -2.71515,0.71641 -4.06572,1.50229 -1.23267,0.72274 -2.45736,1.48916 -3.51772,2.4533 -1.15518,1.05988 -2.10602,2.28039 -3.02012,3.55191 -1.1571,1.40774 -2.17027,2.91191 -2.78682,4.6425 -1.1153,2.3794 -2.11149,4.80778 -2.95894,7.29709 -1.1734,3.36529 -2.36221,6.72892 -3.36514,10.14971 -1.20223,4.06605 -2.37338,8.14078 -3.24504,12.2938 -0.31601,1.45802 -0.60881,2.92106 -0.93154,4.37761 -0.56925,2.56912 -1.25619,5.11309 -1.70311,7.70872 z" />
  <path
     style="fill:#ffffff;stroke-width:0.5"
     id="path17"
     d="m 208.94261,301.86917 c 2.53391,-1.63787 5.46286,-2.47981 8.39078,-3.07791 3.35954,-0.48296 6.75264,-0.72055 10.14152,-0.88589 2.24375,-0.0428 4.45959,-0.43847 6.69189,-0.63801 1.47408,-0.11997 2.95312,-0.14238 4.43123,-0.15102 0.66811,-0.002 1.33623,-0.003 2.00435,-0.003 0,0 -6.04848,-4.39461 -6.04848,-4.39461 v 0 c -0.672,-4.7e-4 -1.34404,-0.003 -2.01601,0.005 -1.48268,0.0241 -2.96549,0.0763 -4.44192,0.22235 -2.20724,0.23207 -4.40283,0.60909 -6.62698,0.64617 -3.40092,0.20921 -6.80932,0.46571 -10.17571,1.00207 -3.01151,0.67134 -5.98021,1.6114 -8.63868,3.2165 z" />
  <path
     style="fill:#ffffff;stroke-width:0.5"
     id="path18"
     d="m 271.11757,281.23338 c -0.86146,3.41413 -1.63307,6.85068 -2.49204,10.26535 -0.78343,3.02049 -1.48646,6.05977 -2.32957,9.06473 -0.51286,1.58788 -0.8789,3.22215 -1.39141,4.8097 -0.24472,0.75805 -0.53348,1.50116 -0.79925,2.25209 -0.6604,1.81102 -1.2601,3.65037 -1.73377,5.51959 -0.52369,1.5838 -0.88092,3.20577 -1.09769,4.8579 0,0 6.61722,3.47261 6.61722,3.47261 v 0 c 0.17997,-1.63006 0.50414,-3.23149 1.03885,-4.78555 0.44891,-1.85366 1.04231,-3.6746 1.66963,-5.4745 0.26619,-0.76476 0.55766,-1.52087 0.80872,-2.29073 0.51851,-1.58997 0.89473,-3.22665 1.3814,-4.82609 0.84149,-3.01687 1.52733,-6.07089 2.29722,-9.10615 0.83945,-3.39842 1.56906,-6.82603 2.58848,-10.17774 z" />
  <path
     style="fill:#ffffff;stroke-width:0.5"
     id="path19"
     d="m 272.28388,264.99387 c -1.39607,0.0495 -3.86226,-0.41665 -5.06702,0.41273 -0.26574,0.18293 -0.44599,0.46629 -0.66899,0.69944 -0.13573,0.29906 -0.31451,0.58211 -0.4072,0.89718 -0.34459,1.17135 -0.11922,2.4776 0.54604,3.48363 0.16269,0.24603 0.36534,0.46315 0.54802,0.69473 3.33367,3.31855 7.75119,5.47129 12.28028,6.60981 1.42229,0.28349 2.87075,0.63802 4.33045,0.66337 0.50262,0.009 1.31599,-0.0955 1.82103,-0.15084 1.90161,-0.31415 2.4121,-1.3188 2.87556,-3.04964 0.33526,-1.63422 0.16706,-3.25865 -0.316,-4.83814 -0.36978,-0.79845 -0.78696,-1.76804 -1.59587,-2.23397 -6.90015,-3.97449 -4.42189,-3.45001 -7.72935,-4.0464 -1.35305,-0.18419 -2.72117,-0.17294 -4.08348,-0.16149 -0.96217,-0.001 -1.90816,-0.0264 -2.85671,0.13914 0,0 6.10501,4.31794 6.10501,4.31794 v 0 c 0.93237,-0.0725 1.86566,-0.0644 2.8007,-0.0624 1.32914,0.0106 2.67338,10e-4 3.97485,0.30996 2.79532,0.91698 0.62937,0.25675 -5.18354,-3.22369 -0.17336,-0.10379 0.37199,0.1624 0.54158,0.27224 0.57504,0.37244 0.9373,0.93531 1.25529,1.52643 0.58826,1.41334 0.77686,2.92719 0.51317,4.44373 -0.36783,1.57393 -0.68934,2.07913 -2.37406,2.2771 -2.0172,0.14143 -4.00575,-0.17748 -5.95598,-0.69851 -1.02946,-0.30603 -1.3114,-0.36627 -2.29581,-0.7481 -0.36432,-0.14132 -1.41143,-0.66201 -1.08125,-0.453 9.89784,6.2655 5.81661,3.62791 3.84186,2.01346 -0.13305,-0.14266 -0.96298,-1.01614 -1.0835,-1.20724 -0.38396,-0.6088 -0.52355,-1.52024 -0.37535,-2.22149 0.0479,-0.22661 0.1749,-0.42894 0.26235,-0.64341 0.16359,-0.14114 0.29884,-0.32417 0.49075,-0.42342 1.10772,-0.57285 3.66183,-0.1729 4.90891,-0.16978 z" />
</svg>
